<svg version="1.0" xmlns="http://www.w3.org/2000/svg" width="779.000000pt" height="148.000000pt" viewBox="0 0 779.000000 148.000000" preserveAspectRatio="xMidYMid meet">
	<g transform="translate(0.000000,148.000000) scale(0.100000,-0.100000)" fill="currentColor" stroke="none">
		<path d="M900 1398 c-140 -13 -276 -78 -384 -183 -75 -73 -126 -154 -162 -260
-38 -110 -41 -272 -6 -385 54 -175 177 -318 336 -394 114 -55 177 -70 291 -69
178 0 323 61 451 188 44 44 95 105 111 135 142 252 105 559 -92 769 -141 150
-330 219 -545 199z m70 -277 c0 -6 -7 -38 -15 -73 -23 -103 -62 -354 -76 -488
-8 -83 -17 -131 -27 -142 -13 -16 -34 -18 -150 -18 l-134 0 7 28 c34 135 68
345 87 541 16 166 10 161 178 161 74 0 130 -4 130 -9z m388 0 c-8 -22 -139
-181 -209 -252 l-75 -77 47 -5 c58 -7 104 -30 120 -58 6 -12 12 -71 13 -132 1
-111 4 -119 44 -133 1 0 -3 -14 -9 -31 -10 -30 -13 -31 -103 -42 -124 -16
-180 -3 -204 46 -14 29 -14 44 -4 116 17 121 16 154 -8 169 -11 7 -20 20 -20
28 0 27 167 357 187 369 22 13 226 15 221 2z" />
		<path d="M2222 1179 c-94 -12 -160 -52 -194 -118 l-28 -53 0 -262 c0 -160 4
-276 11 -301 7 -23 28 -57 53 -82 66 -65 110 -74 367 -71 l214 3 0 110 0 110
-166 5 c-120 4 -171 9 -183 19 -14 12 -16 39 -16 196 0 157 2 184 16 196 12
10 63 15 183 19 l166 5 3 111 c3 109 2 112 -20 118 -32 8 -330 5 -406 -5z" />
		<path d="M2928 1179 c-17 -9 -18 -41 -18 -437 0 -235 4 -433 8 -440 7 -9 41
-12 138 -10 l129 3 3 158 3 157 109 0 109 0 3 -157 3 -158 135 0 135 0 3 435
c2 400 1 436 -15 448 -21 15 -216 17 -244 2 -17 -10 -19 -23 -19 -160 l0 -150
-110 0 -110 0 0 150 c0 137 -2 150 -19 160 -25 13 -220 13 -243 -1z" />
		<path d="M4200 1177 c-20 -10 -38 -47 -93 -187 -97 -251 -98 -255 -95 -492 l3
-203 130 0 130 0 3 107 3 108 114 0 114 0 3 -107 3 -108 129 -3 c97 -2 131 1
138 10 12 20 10 370 -3 430 -11 52 -126 365 -154 418 -8 15 -25 30 -37 34 -45
12 -362 6 -388 -7z m237 -257 c6 -14 22 -62 36 -107 l25 -83 -103 0 c-79 0
-103 3 -100 13 2 6 13 44 25 82 39 125 39 126 74 123 21 -2 34 -11 43 -28z" />
		<path d="M5127 1178 c-16 -12 -17 -42 -15 -448 l3 -435 290 0 c319 0 352 5
411 63 60 60 64 81 64 377 0 263 -1 271 -24 321 -27 57 -65 89 -134 112 -66
21 -569 30 -595 10z m461 -240 c8 -8 12 -68 12 -203 0 -135 -4 -195 -12 -203
-8 -8 -46 -12 -105 -12 l-93 0 0 215 0 215 93 0 c59 0 97 -4 105 -12z" />
		<path d="M6827 1178 c-16 -12 -17 -48 -15 -448 l3 -435 135 0 135 0 3 163 2
162 89 0 c49 0 96 -3 105 -6 13 -5 16 -27 16 -134 0 -70 3 -142 6 -159 l7 -32
131 3 131 3 0 231 0 231 -28 36 c-19 25 -41 40 -70 48 -23 7 -43 13 -45 15 -2
1 27 68 63 150 36 82 65 154 65 160 0 7 -7 15 -16 18 -29 11 -208 6 -234 -7
-18 -9 -42 -52 -94 -170 -66 -149 -72 -157 -98 -157 l-28 0 0 160 c0 147 -1
160 -19 170 -28 15 -223 13 -244 -2z" />
		<path d="M6222 620 c-22 -9 -22 -11 -20 -167 l3 -158 165 0 165 0 3 158 3 157
-26 10 c-33 12 -262 12 -293 0z" />
	</g>
</svg>
